<?xml version="1.0" encoding="UTF-8" standalone="no"?>
<!DOCTYPE svg PUBLIC "-//W3C//DTD SVG 1.1//EN" "http://www.w3.org/Graphics/SVG/1.1/DTD/svg11.dtd">
<svg xmlns="http://www.w3.org/2000/svg" version="1.1" viewBox="0.00 0.00 512.00 512.00">
<path fill="#ffffff" d="
  M 512.00 244.88
  L 512.00 279.26
  Q 507.16 355.50 460.79 416.78
  Q 413.64 479.10 340.70 504.58
  C 336.04 506.21 329.11 507.64 324.86 504.36
  C 317.48 498.67 318.95 489.45 318.96 481.13
  Q 319.02 450.67 318.93 420.50
  C 318.88 403.30 314.45 388.11 302.20 375.39
  A 0.30 0.30 0.0 0 1 302.34 374.89
  Q 305.00 374.17 307.75 373.86
  Q 326.64 371.77 342.60 366.72
  Q 358.82 361.59 375.45 350.60
  Q 393.61 338.60 403.43 319.61
  C 414.19 298.81 418.38 275.56 418.72 251.39
  Q 418.87 240.32 417.21 230.69
  Q 412.52 203.47 393.91 182.28
  C 393.17 181.44 392.61 180.34 392.91 179.18
  C 393.80 175.70 395.17 172.42 395.92 168.89
  C 399.82 150.41 397.35 131.58 390.49 114.28
  Q 389.66 112.18 387.34 112.00
  C 379.32 111.36 370.32 113.75 362.92 116.71
  Q 341.70 125.18 322.84 137.51
  C 321.30 138.52 319.24 139.20 317.45 138.71
  Q 295.69 132.68 273.24 131.40
  Q 267.46 131.07 261.74 130.75
  C 254.12 130.34 246.19 130.95 238.58 131.36
  Q 217.21 132.52 194.97 138.58
  Q 191.87 139.43 189.17 137.61
  Q 167.94 123.31 141.61 114.51
  Q 134.10 112.00 126.19 111.81
  Q 121.86 111.71 120.39 116.36
  Q 116.96 127.23 115.69 133.74
  Q 111.30 156.19 118.71 177.72
  C 119.25 179.30 119.19 181.07 118.06 182.40
  Q 115.10 185.85 112.18 189.71
  C 98.82 207.31 92.84 229.37 93.24 251.61
  C 93.67 275.46 97.74 298.45 108.76 319.69
  C 115.16 332.00 123.69 341.90 134.91 349.70
  Q 148.44 359.11 164.14 365.05
  Q 171.83 367.96 182.75 370.34
  Q 194.27 372.84 206.07 374.22
  Q 207.86 374.43 209.65 375.03
  A 0.33 0.33 0.0 0 1 209.78 375.58
  Q 196.23 388.91 193.92 408.79
  A 1.59 1.58 80.3 0 1 193.05 410.03
  C 184.71 414.24 176.52 415.65 166.75 416.57
  Q 158.54 417.36 152.46 416.08
  C 140.31 413.53 130.22 406.49 123.13 396.19
  C 119.10 390.33 115.57 384.43 110.77 379.17
  Q 101.57 369.10 88.14 364.24
  Q 81.81 361.96 73.66 362.93
  Q 69.87 363.38 68.21 365.22
  A 0.83 0.82 52.7 0 0 68.09 366.15
  Q 70.56 371.00 74.64 374.19
  C 78.79 377.44 83.50 380.17 87.19 383.85
  C 97.11 393.72 102.57 405.51 108.15 418.20
  C 113.91 431.31 125.80 440.61 139.33 443.94
  C 155.99 448.03 174.15 447.62 191.50 445.05
  Q 193.05 444.82 193.04 446.39
  Q 192.93 468.24 193.06 490.14
  Q 193.09 495.59 192.05 498.53
  C 190.16 503.92 185.24 506.49 179.76 506.28
  Q 176.31 506.14 174.52 505.56
  Q 98.92 480.76 50.14 415.36
  Q 4.03 353.55 0.00 276.85
  L 0.00 248.01
  Q 2.15 204.12 18.06 165.30
  C 43.65 102.83 93.81 51.94 156.08 25.59
  Q 196.00 8.70 239.95 6.35
  Q 249.26 5.86 259.98 5.95
  Q 326.43 6.53 383.92 39.52
  C 428.93 65.35 464.91 104.63 487.40 150.77
  Q 508.79 194.63 512.00 244.88
  Z"
/>
</svg>
