<?xml version="1.0" encoding="UTF-8" standalone="no"?>
<!DOCTYPE svg PUBLIC "-//W3C//DTD SVG 1.1//EN" "http://www.w3.org/Graphics/SVG/1.1/DTD/svg11.dtd">
<svg xmlns="http://www.w3.org/2000/svg" version="1.1" viewBox="0.00 0.00 512.00 512.00">
<path fill="#000000" d="
  M 512.00 242.35
  L 512.00 268.54
  Q 510.62 283.29 499.38 290.87
  Q 491.83 295.97 483.61 295.97
  Q 312.56 296.01 140.86 295.98
  Q 140.24 295.98 140.68 296.42
  Q 192.64 348.33 244.87 400.16
  Q 251.55 406.79 253.65 410.43
  C 259.83 421.10 257.76 434.57 249.27 443.42
  Q 240.51 452.56 232.11 460.57
  Q 223.53 468.75 212.44 468.47
  Q 200.51 468.17 193.18 460.83
  Q 100.92 368.61 8.17 275.83
  Q 0.82 268.48 0.00 257.21
  L 0.00 254.50
  Q 0.93 243.37 8.28 236.02
  Q 100.62 143.68 192.79 51.79
  Q 201.12 43.48 212.42 43.47
  Q 223.86 43.46 232.16 51.47
  Q 241.52 60.51 249.19 68.47
  C 260.11 79.80 259.80 97.35 248.66 108.52
  Q 195.18 162.20 141.80 215.60
  Q 141.38 216.02 141.97 216.02
  Q 313.59 216.01 484.27 216.02
  Q 491.41 216.02 498.17 220.14
  Q 510.63 227.72 512.00 242.35
  Z"
/>
</svg>
