<?xml version="1.0" encoding="UTF-8" standalone="no"?>
<!DOCTYPE svg PUBLIC "-//W3C//DTD SVG 1.1//EN" "http://www.w3.org/Graphics/SVG/1.1/DTD/svg11.dtd">
<svg xmlns="http://www.w3.org/2000/svg" version="1.1" viewBox="0.00 0.00 256.00 256.00">
<path fill="#ffffff" d="
  M 45.64 0.00
  L 210.49 0.00
  Q 235.15 2.09 248.30 22.00
  Q 255.07 32.25 256.00 45.64
  L 256.00 210.49
  Q 253.99 234.60 234.75 247.80
  Q 224.21 255.04 210.36 256.00
  L 45.52 256.00
  Q 21.40 253.99 8.20 234.75
  Q 0.96 224.21 0.00 210.36
  L 0.00 45.51
  Q 1.00 31.73 8.20 21.25
  Q 21.44 1.95 45.64 0.00
  Z
  M 80.2884 62.2824
  A 21.90 20.28 -0.7 0 0 58.1422 42.2715
  A 21.90 20.28 -0.7 0 0 36.4916 62.8176
  A 21.90 20.28 -0.7 0 0 58.6378 82.8285
  A 21.90 20.28 -0.7 0 0 80.2884 62.2824
  Z
  M 138.28 114.20
  L 138.03 98.75
  Q 138.02 98.24 137.50 98.24
  L 98.22 98.24
  Q 97.68 98.24 97.68 98.78
  L 97.87 216.73
  Q 97.88 217.34 98.48 217.34
  L 137.97 217.33
  A 0.28 0.28 0.0 0 0 138.25 217.05
  Q 138.27 183.76 138.22 149.85
  Q 138.21 139.64 143.60 133.48
  C 148.12 128.30 153.60 126.00 160.44 126.42
  C 174.76 127.32 176.86 141.23 176.87 152.45
  Q 176.91 184.04 176.86 216.69
  Q 176.85 217.31 177.47 217.31
  L 216.48 217.31
  Q 217.01 217.31 217.01 216.78
  Q 217.02 182.39 217.00 147.33
  C 216.99 129.87 211.77 111.90 196.78 102.31
  C 188.14 96.78 177.16 95.00 167.02 96.08
  C 154.61 97.40 145.32 103.87 138.71 114.32
  Q 138.29 114.98 138.28 114.20
  Z
  M 39.31 217.00
  A 0.31 0.31 0.0 0 0 39.62 217.31
  L 78.86 217.31
  A 0.31 0.31 0.0 0 0 79.17 217.00
  L 78.94 98.55
  A 0.31 0.31 0.0 0 0 78.63 98.24
  L 39.48 98.24
  A 0.31 0.31 0.0 0 0 39.17 98.55
  L 39.31 217.00
  Z"
/>
</svg>
