<svg width="72" height="25" viewBox="0 0 72 25" fill="none" xmlns="http://www.w3.org/2000/svg">
<path d="M25 11.8335V13.1123C24.9551 13.5925 24.7497 13.9559 24.3838 14.2026C24.138 14.3687 23.8813 14.4517 23.6138 14.4517C18.0457 14.453 12.4671 14.4531 6.87793 14.4522C6.85775 14.4522 6.85482 14.4593 6.86914 14.4736C8.56055 16.1634 10.2563 17.8519 11.9565 19.5391C12.174 19.7549 12.3169 19.922 12.3853 20.0405C12.687 20.5615 12.5859 21.2192 12.1714 21.6514C11.8862 21.9489 11.6069 22.228 11.3335 22.4888C11.0542 22.755 10.734 22.8836 10.373 22.8745C9.9847 22.8647 9.67122 22.7404 9.43262 22.5015C6.42936 19.4995 3.41813 16.4884 0.398926 13.4683C0.159668 13.229 0.0266927 12.9259 0 12.5591V12.4268C0.0302734 12.0645 0.165039 11.7637 0.404297 11.5244C3.41016 8.51856 6.41325 5.52002 9.41357 2.52881C9.68473 2.2583 10.0042 2.12288 10.3721 2.12256C10.7445 2.12223 11.0658 2.25244 11.3359 2.51318C11.6406 2.80746 11.9178 3.08415 12.1675 3.34326C12.7007 3.89649 12.6855 4.75342 12.1416 5.29883C10.4007 7.04623 8.66146 8.78906 6.92383 10.5273C6.91016 10.541 6.91292 10.5479 6.93213 10.5479C12.5187 10.5475 18.09 10.5475 23.646 10.5479C23.8784 10.5479 24.1047 10.6149 24.3247 10.749C24.7303 10.9958 24.9554 11.3573 25 11.8335Z" fill="#9C9C9C"/>
<path d="M32.4375 6.57812H35.9922C37.513 6.57812 38.6641 6.79167 39.4453 7.21875C40.2266 7.64583 40.6172 8.39583 40.6172 9.46875C40.6172 9.90104 40.5469 10.2917 40.4062 10.6406C40.2708 10.9896 40.0729 11.276 39.8125 11.5C39.5521 11.724 39.2344 11.8698 38.8594 11.9375V12.0156C39.2396 12.0938 39.5833 12.2292 39.8906 12.4219C40.1979 12.6094 40.4427 12.8854 40.625 13.25C40.8125 13.6094 40.9062 14.0885 40.9062 14.6875C40.9062 15.3802 40.737 15.974 40.3984 16.4688C40.0599 16.9635 39.5755 17.3438 38.9453 17.6094C38.3203 17.8698 37.5755 18 36.7109 18H32.4375V6.57812ZM34.8594 11.1016H36.2656C36.9688 11.1016 37.4557 10.9922 37.7266 10.7734C37.9974 10.5495 38.1328 10.2214 38.1328 9.78906C38.1328 9.35156 37.9714 9.03906 37.6484 8.85156C37.3307 8.65885 36.8255 8.5625 36.1328 8.5625H34.8594V11.1016ZM34.8594 13.0234V16H36.4375C37.1667 16 37.6745 15.8594 37.9609 15.5781C38.2474 15.2969 38.3906 14.9193 38.3906 14.4453C38.3906 14.1641 38.3281 13.9167 38.2031 13.7031C38.0781 13.4896 37.8672 13.3229 37.5703 13.2031C37.2786 13.0833 36.875 13.0234 36.3594 13.0234H34.8594ZM47.3781 9.08594C48.55 9.08594 49.4484 9.34115 50.0734 9.85156C50.6984 10.362 51.0109 11.138 51.0109 12.1797V18H49.3469L48.8859 16.8125H48.8234C48.5734 17.125 48.3182 17.3802 48.0578 17.5781C47.7974 17.776 47.4979 17.9219 47.1594 18.0156C46.8208 18.1094 46.4094 18.1562 45.925 18.1562C45.4094 18.1562 44.9458 18.0573 44.5344 17.8594C44.1281 17.6615 43.8078 17.3594 43.5734 16.9531C43.3391 16.5417 43.2219 16.0208 43.2219 15.3906C43.2219 14.4635 43.5474 13.7812 44.1984 13.3438C44.8495 12.901 45.826 12.6562 47.1281 12.6094L48.6438 12.5625V12.1797C48.6438 11.7214 48.524 11.3854 48.2844 11.1719C48.0448 10.9583 47.7115 10.8516 47.2844 10.8516C46.8625 10.8516 46.4484 10.9115 46.0422 11.0312C45.6359 11.151 45.2297 11.3021 44.8234 11.4844L44.0344 9.875C44.4979 9.63021 45.0161 9.4375 45.5891 9.29688C46.1672 9.15625 46.7635 9.08594 47.3781 9.08594ZM48.6438 13.9531L47.7219 13.9844C46.951 14.0052 46.4146 14.1432 46.1125 14.3984C45.8156 14.6536 45.6672 14.9896 45.6672 15.4062C45.6672 15.7708 45.774 16.0312 45.9875 16.1875C46.201 16.3385 46.4797 16.4141 46.8234 16.4141C47.3339 16.4141 47.7635 16.263 48.1125 15.9609C48.4667 15.6589 48.6438 15.2292 48.6438 14.6719V13.9531ZM57.8188 18.1562C56.9542 18.1562 56.2172 18 55.6078 17.6875C54.9984 17.3698 54.5349 16.8802 54.2172 16.2188C53.8995 15.5573 53.7406 14.7109 53.7406 13.6797C53.7406 12.612 53.9203 11.7422 54.2797 11.0703C54.6443 10.3932 55.1469 9.89583 55.7875 9.57812C56.4333 9.26042 57.1807 9.10156 58.0297 9.10156C58.6339 9.10156 59.1547 9.16146 59.5922 9.28125C60.0349 9.39583 60.4203 9.53385 60.7484 9.69531L60.0453 11.5391C59.6703 11.388 59.3214 11.2656 58.9984 11.1719C58.6755 11.0729 58.3526 11.0234 58.0297 11.0234C57.613 11.0234 57.2667 11.1224 56.9906 11.3203C56.7146 11.513 56.5089 11.8047 56.3734 12.1953C56.238 12.5859 56.1703 13.0755 56.1703 13.6641C56.1703 14.2422 56.2432 14.7214 56.3891 15.1016C56.5349 15.4818 56.7458 15.7656 57.0219 15.9531C57.2979 16.1354 57.6339 16.2266 58.0297 16.2266C58.5245 16.2266 58.9646 16.1615 59.35 16.0312C59.7354 15.8958 60.1104 15.7083 60.475 15.4688V17.5078C60.1104 17.737 59.7276 17.901 59.3266 18C58.9307 18.1042 58.4281 18.1562 57.8188 18.1562ZM65.6891 5.84375V11.2812C65.6891 11.6094 65.676 11.9375 65.65 12.2656C65.624 12.5938 65.5953 12.9219 65.5641 13.25H65.5953C65.7568 13.0208 65.9208 12.7943 66.0875 12.5703C66.2594 12.3464 66.4417 12.1302 66.6344 11.9219L69.0797 9.26562H71.7672L68.2984 13.0547L71.9781 18H69.2281L66.7125 14.4609L65.6891 15.2812V18H63.3062V5.84375H65.6891Z" fill="#9C9C9C"/>
</svg>
