<svg width="188" height="25" viewBox="0 0 188 25" fill="none" xmlns="http://www.w3.org/2000/svg">
<path d="M71.1671 18.3798V25H64.5469V18.3798H63.2402L67.9441 13.8502L69.7733 15.5924V14.5471H70.6444V16.4635L72.6479 18.3798H71.1671Z" fill="#23C36D"/>
<path d="M81.9686 25H75.3484V11.5854H74.1289L78.6585 6.96869L80.5749 8.79796V7.75266H81.2718V9.66904L83.1881 11.5854H81.9686V25Z" fill="#23C36D"/>
<path d="M92.6827 25H85.9754V4.61676H84.843L89.3726 0.174255L91.3761 2.00352V0.958227H91.9859V2.8746L93.9022 4.61676H92.6827V25Z" fill="#23C36D"/>
<path fill-rule="evenodd" clip-rule="evenodd" d="M0 24.7387H5.4007V15.1568H16.3763V10.6272H5.4007V5.22648H16.899V0.522644H0V24.7387ZM24.216 24.7387H29.6167V0.522644H24.216V24.7387ZM43.9024 24.7387H38.5017V0.522644H42.5087L53.8327 15.1568V0.522644H59.2334V24.7387H55.2265L43.9024 10.1045V24.7387ZM96.8641 24.7387V0.522644H108.362C108.362 0.522644 112.718 0.69686 116.028 4.00696C119.338 7.31707 119.425 11.9338 119.338 12.5435C119.328 12.6167 119.322 12.7512 119.315 12.9368L119.315 12.9374L119.315 12.9378C119.26 14.3014 119.094 18.4185 116.028 21.2543C112.544 24.4773 108.362 24.7387 108.362 24.7387H96.8641ZM102.265 5.22647V20.0348H107.666C107.666 20.0348 110.627 19.7735 112.369 17.5958C114.111 15.4181 113.937 12.5435 113.937 12.5435C113.937 12.5435 114.111 9.9303 112.369 7.66549C110.627 5.40068 107.666 5.22647 107.666 5.22647H102.265Z" fill="#151515"/>
<path d="M132.23 0.362104H126.829V24.5781H132.23V0.362104Z" fill="#151515"/>
<path d="M158.101 17.7837L161.672 21.4422C161.672 21.4422 158.362 25.1879 152.439 24.9266C146.516 24.6652 143.293 21.268 143.293 21.268C143.293 21.268 139.982 18.3063 139.721 12.4701C139.46 6.63388 144.076 2.80113 144.076 2.80113C144.076 2.80113 146.777 0.274996 152.439 0.013672C158.101 -0.247652 161.672 3.32378 161.672 3.32378L158.101 7.15653C158.101 7.15653 155.488 4.7175 152.439 4.89172C149.39 5.06594 147.561 6.8081 147.561 6.8081C147.561 6.8081 145.296 8.55026 145.296 12.2959C145.296 16.0415 147.561 18.3064 147.561 18.3064C147.561 18.3064 148.693 19.7001 152.439 19.9614C156.184 20.2227 158.101 17.7837 158.101 17.7837Z" fill="#151515"/>
<path d="M179.617 24.5781H174.216V5.06594H166.725V0.362106H187.282V5.06594H179.617V24.5781Z" fill="#151515"/>
</svg>
