<svg width="300" height="40" viewBox="0 0 300 40" fill="none" xmlns="http://www.w3.org/2000/svg">
<path d="M113.868 29.4077V40H103.275V29.4077H101.185L108.711 22.1603L111.638 24.9477V23.2753H113.031V26.3415L116.237 29.4077H113.868Z" fill="#23C36D"/>
<path d="M131.15 40H120.557V18.5366H118.606L125.854 11.1498L128.92 14.0767V12.4042H130.035V15.4704L133.101 18.5366H131.15V40Z" fill="#23C36D"/>
<path d="M148.293 40H137.561V7.38676H135.749L142.997 0.278748L146.202 3.20558V1.5331H147.178V4.5993L150.244 7.38676H148.293V40Z" fill="#23C36D"/>
<path fill-rule="evenodd" clip-rule="evenodd" d="M0 39.5818H8.64111V24.2508H26.2021V17.0034H8.64111V8.36231H27.0383V0.836182H0V39.5818ZM38.7456 39.5818H47.3867V0.836182H38.7456V39.5818ZM70.2439 39.5818H61.6028V0.836182H68.0139L86.1324 24.2508V0.836182H94.7735V39.5818H88.3624L70.2439 16.1672V39.5818ZM154.983 39.5818V0.836182H173.38C173.38 0.836182 180.348 1.11493 185.645 6.41109C190.941 11.7073 191.08 19.094 190.941 20.0696C190.924 20.1868 190.915 20.4026 190.903 20.7005C190.815 22.8822 190.55 29.4696 185.645 34.0069C180.07 39.1637 173.38 39.5818 173.38 39.5818H154.983ZM163.624 8.36232V32.0557H172.265C172.265 32.0557 177.003 31.6376 179.791 28.1533C182.578 24.6689 182.3 20.0696 182.3 20.0696C182.3 20.0696 182.578 15.8885 179.791 12.2648C177.003 8.64107 172.265 8.36232 172.265 8.36232H163.624Z" fill="#EEEEEE"/>
<path d="M211.568 0.579366H202.927V39.325H211.568V0.579366Z" fill="#EEEEEE"/>
<path d="M252.962 28.4539L258.676 34.3076C258.676 34.3076 253.38 40.3006 243.902 39.8825C234.425 39.4644 229.268 34.0288 229.268 34.0288C229.268 34.0288 223.972 29.2902 223.554 19.9522C223.136 10.6142 230.523 4.4818 230.523 4.4818C230.523 4.4818 234.843 0.439994 243.902 0.0218753C252.962 -0.396243 258.676 5.31804 258.676 5.31804L252.962 11.4504C252.962 11.4504 248.78 7.54801 243.902 7.82675C239.024 8.1055 236.098 10.893 236.098 10.893C236.098 10.893 232.474 13.6804 232.474 19.6734C232.474 25.6665 236.098 29.2902 236.098 29.2902C236.098 29.2902 237.909 31.5201 243.902 31.9382C249.895 32.3564 252.962 28.4539 252.962 28.4539Z" fill="#EEEEEE"/>
<path d="M287.387 39.325H278.746V8.1055H266.76V0.57937H299.652V8.1055H287.387V39.325Z" fill="#EEEEEE"/>
</svg>
