<svg width="241" height="33" viewBox="0 0 241 33" fill="none" xmlns="http://www.w3.org/2000/svg">
<path d="M91.2067 23.3319V31.8163H82.7223V23.3319H81.0478L87.0761 17.5269L89.4205 19.7596V18.4199H90.5369V20.8759L93.1045 23.3319H91.2067Z" fill="#A2A2A2"/>
<path d="M105.05 31.8164H96.5652V14.6245H95.0023L100.807 8.70776L103.263 11.0521V9.71249H104.156V12.1685L106.612 14.6245H105.05V31.8164Z" fill="#A2A2A2"/>
<path d="M118.781 31.8163H110.185V5.69344H108.734L114.539 0L117.106 2.34436V1.00473H117.888V3.46072L120.344 5.69344H118.781V31.8163Z" fill="#A2A2A2"/>
<path fill-rule="evenodd" clip-rule="evenodd" d="M0 31.7048H6.92144V19.4248H20.9876V13.6197H6.92144V6.69827H21.6574V0.669922H0V31.7048ZM31.0348 31.7048H37.9563V0.669922H31.0348V31.7048ZM56.2646 31.7048H49.3432V0.669922H54.4784L68.9911 19.4248V0.669922H75.9126V31.7048H70.7773L56.2646 12.9499V31.7048ZM124.139 31.7048V0.669922H138.875C138.875 0.669922 144.457 0.893194 148.699 5.13537C152.941 9.37754 153.053 15.2943 152.941 16.0757C152.928 16.1695 152.921 16.342 152.911 16.5802V16.5806V16.581C152.841 18.3285 152.628 23.605 148.699 27.2393C144.234 31.3699 138.875 31.7048 138.875 31.7048H124.139ZM131.061 6.69824V25.6764H137.982C137.982 25.6764 141.778 25.3415 144.011 22.5506C146.243 19.7597 146.02 16.0757 146.02 16.0757C146.02 16.0757 146.243 12.7266 144.011 9.82405C141.778 6.92151 137.982 6.69824 137.982 6.69824H131.061Z" fill="#A2A2A2"/>
<path d="M169.464 0.687455H162.542V31.7223H169.464V0.687455Z" fill="#A2A2A2"/>
<path d="M202.62 23.0147L207.197 27.7034C207.197 27.7034 202.954 32.5037 195.363 32.1688C187.772 31.8339 183.641 27.4801 183.641 27.4801C183.641 27.4801 179.399 23.6845 179.064 16.2049C178.729 8.72526 184.646 3.81327 184.646 3.81327C184.646 3.81327 188.107 0.575819 195.363 0.240911C202.62 -0.0939978 207.197 4.48308 207.197 4.48308L202.62 9.39507C202.62 9.39507 199.27 6.26926 195.363 6.49253C191.456 6.71581 189.112 8.94853 189.112 8.94853C189.112 8.94853 186.209 11.1812 186.209 15.9816C186.209 20.782 189.112 23.6845 189.112 23.6845C189.112 23.6845 190.563 25.4707 195.363 25.8056C200.164 26.1405 202.62 23.0147 202.62 23.0147Z" fill="#A2A2A2"/>
<path d="M230.194 31.7223H223.272V6.71581H213.672V0.687458H240.018V6.71581H230.194V31.7223Z" fill="#A2A2A2"/>
</svg>
