<?xml version="1.0" encoding="UTF-8" standalone="no"?>
<!DOCTYPE svg PUBLIC "-//W3C//DTD SVG 1.1//EN" "http://www.w3.org/Graphics/SVG/1.1/DTD/svg11.dtd">
<svg xmlns="http://www.w3.org/2000/svg" version="1.1" viewBox="0.00 0.00 512.00 512.00">
<path fill="#23c36d" d="
  M 308.13 0.00
  L 311.51 0.00
  Q 382.44 5.14 434.73 51.14
  Q 442.72 58.17 449.08 65.17
  Q 499.15 120.22 503.11 194.61
  C 503.48 201.42 499.13 206.04 492.64 206.04
  Q 435.17 206.02 378.99 206.02
  Q 378.47 206.02 378.21 205.57
  Q 350.32 157.48 300.00 134.98
  Q 299.51 134.77 299.51 134.23
  Q 299.45 72.21 299.49 10.25
  Q 299.49 2.06 308.13 0.00
  Z"
/>
<path fill="#23c36d" d="
  M 239.37 512.00
  L 227.00 512.00
  Q 219.87 511.47 212.77 510.81
  Q 167.24 506.57 127.82 485.26
  C 47.89 442.06 1.35 356.25 9.90 265.56
  C 15.61 205.05 46.06 148.58 94.08 110.76
  Q 148.59 67.81 218.64 62.54
  Q 225.19 62.04 227.65 63.09
  C 232.23 65.02 233.81 69.01 233.79 73.91
  Q 233.71 99.16 233.80 120.61
  Q 233.81 121.19 233.22 121.20
  Q 177.44 122.09 134.13 154.62
  C 95.11 183.93 70.78 229.58 68.26 278.50
  C 63.12 378.34 148.27 460.85 248.07 452.13
  C 279.66 449.37 307.98 438.16 333.51 419.43
  Q 334.00 419.07 334.37 419.55
  Q 348.24 437.71 362.48 455.83
  C 365.90 460.17 367.47 465.03 364.15 469.54
  Q 362.70 471.52 359.23 473.83
  Q 305.06 509.88 239.37 512.00
  Z"
/>
<path fill="#23c36d" d="
  M 369.38 287.01
  A 135.57 135.57 0.0 0 1 233.81 422.58
  A 135.57 135.57 0.0 0 1 98.24 287.01
  A 135.57 135.57 0.0 0 1 233.81 151.44
  A 135.57 135.57 0.0 0 1 369.38 287.01
  Z
  M 249.58 362.67
  C 266.08 362.84 281.11 354.63 289.45 340.93
  C 305.45 314.64 291.20 280.65 261.46 273.27
  Q 255.66 271.83 246.17 271.87
  Q 233.04 271.94 219.72 272.02
  C 213.22 272.06 208.01 270.62 204.35 265.16
  C 197.10 254.36 205.19 241.34 217.88 241.40
  Q 233.82 241.48 249.08 241.44
  C 255.88 241.43 261.39 244.40 266.12 249.17
  C 273.85 256.97 287.16 253.66 290.78 243.49
  C 293.03 237.18 291.00 231.15 286.15 226.56
  Q 270.47 211.72 249.55 211.28
  Q 248.90 211.26 248.90 210.62
  Q 248.88 204.15 248.95 198.50
  Q 249.05 190.49 244.13 186.00
  C 236.11 178.69 224.53 181.35 220.02 190.94
  Q 218.51 194.14 218.68 199.42
  Q 218.87 205.29 218.71 210.81
  Q 218.70 211.26 218.24 211.27
  C 198.46 211.69 181.22 222.13 174.45 240.65
  C 166.29 262.96 175.77 286.42 196.70 297.28
  C 202.11 300.09 208.84 301.86 214.81 301.96
  Q 231.45 302.23 248.41 302.00
  C 253.48 301.94 257.86 302.97 261.49 306.65
  C 269.14 314.41 266.48 326.93 256.81 331.28
  Q 253.79 332.63 249.34 332.61
  Q 231.13 332.50 215.72 332.55
  Q 209.08 332.56 203.42 328.78
  C 195.97 323.80 186.16 324.87 181.26 332.75
  C 177.07 339.48 178.82 348.29 185.16 352.87
  C 194.91 359.91 206.08 362.97 218.11 362.74
  A 0.62 0.62 0.0 0 1 218.74 363.36
  Q 218.79 369.47 218.70 375.86
  Q 218.57 384.87 225.34 389.49
  Q 230.81 393.21 236.50 391.90
  Q 248.79 389.04 248.91 375.58
  Q 248.97 369.69 248.89 363.36
  Q 248.88 362.66 249.58 362.67
  Z"
/>
<path fill="#23c36d" d="
  M 502.77 281.77
  C 498.44 328.97 478.03 369.87 442.96 402.03
  Q 439.03 405.64 436.36 406.26
  C 431.87 407.30 428.14 405.60 425.41 402.05
  Q 407.47 378.77 386.77 352.08
  Q 386.46 351.69 386.65 351.22
  C 397.50 325.16 401.36 298.00 398.72 270.02
  Q 398.65 269.33 399.34 269.33
  Q 443.66 269.39 489.20 269.26
  Q 495.13 269.24 497.84 270.70
  C 502.01 272.93 503.19 277.23 502.77 281.77
  Z"
/>
</svg>
