<?xml version="1.0" encoding="UTF-8" standalone="no"?>
<!DOCTYPE svg PUBLIC "-//W3C//DTD SVG 1.1//EN" "http://www.w3.org/Graphics/SVG/1.1/DTD/svg11.dtd">
<svg xmlns="http://www.w3.org/2000/svg" version="1.1" viewBox="0.00 0.00 512.00 512.00">
<path fill="#23c36d" d="
  M 163.63 0.00
  L 380.95 0.00
  Q 381.04 55.81 381.00 111.64
  Q 381.00 118.17 382.25 120.95
  C 384.84 126.72 390.22 130.00 396.54 130.00
  Q 451.65 129.98 510.43 129.99
  A 0.56 0.56 0.0 0 1 510.99 130.55
  Q 510.90 293.95 511.09 458.34
  Q 511.11 470.94 509.89 476.68
  Q 506.69 491.73 494.37 501.88
  Q 483.44 510.89 468.37 512.00
  L 231.01 512.00
  Q 249.16 498.77 262.40 482.91
  Q 294.85 444.05 300.30 392.56
  Q 300.36 392.00 300.92 392.00
  Q 363.01 391.99 424.95 392.01
  Q 435.86 392.01 439.89 382.43
  Q 442.72 375.69 438.67 369.13
  Q 434.25 361.96 425.09 361.97
  Q 363.04 362.04 300.85 361.98
  Q 300.34 361.98 300.28 361.47
  Q 297.01 329.47 283.23 302.66
  Q 282.89 302.00 283.63 302.00
  Q 354.13 302.01 425.52 301.99
  C 437.44 301.99 445.22 289.42 438.63 279.00
  C 435.62 274.23 430.78 271.97 425.13 271.97
  Q 343.39 272.02 263.77 272.00
  Q 263.16 272.00 262.77 271.53
  C 231.18 233.74 185.81 212.42 136.18 212.00
  Q 132.32 211.96 121.66 212.63
  Q 120.99 212.67 120.99 212.00
  Q 121.00 128.50 121.00 45.47
  C 121.00 33.21 125.64 21.88 134.29 13.21
  Q 145.93 1.53 163.63 0.00
  Z
  M 440.94 196.80
  A 14.79 14.79 0.0 0 0 426.15 182.01
  L 205.85 182.01
  A 14.79 14.79 0.0 0 0 191.06 196.80
  L 191.06 197.20
  A 14.79 14.79 0.0 0 0 205.85 211.99
  L 426.15 211.99
  A 14.79 14.79 0.0 0 0 440.94 197.20
  L 440.94 196.80
  Z"
/>
<path fill="#23c36d" d="
  M 501.44 100.00
  L 411.31 100.00
  A 0.31 0.31 0.0 0 1 411.00 99.69
  L 411.00 9.56
  A 0.31 0.31 0.0 0 1 411.53 9.34
  L 501.66 99.47
  A 0.31 0.31 0.0 0 1 501.44 100.00
  Z"
/>
<path fill="#23c36d" d="
  M 140.36 512.00
  L 131.52 512.00
  Q 91.97 510.27 60.30 488.69
  C -5.47 443.89 -18.81 352.44 32.13 290.96
  C 68.92 246.57 130.44 230.03 184.53 251.08
  C 229.58 268.61 262.07 308.72 269.36 356.52
  C 276.56 403.75 258.62 450.23 222.12 480.87
  Q 187.55 509.90 140.36 512.00
  Z
  M 151.02 361.39
  Q 150.96 339.29 151.03 318.07
  Q 151.06 309.22 144.41 304.65
  C 136.58 299.28 126.21 302.43 122.34 310.90
  Q 120.88 314.10 120.92 319.08
  Q 121.12 346.46 120.94 374.88
  C 120.89 381.93 123.37 387.73 129.85 390.63
  Q 133.16 392.11 136.88 392.08
  Q 156.75 391.90 175.57 392.03
  C 179.66 392.06 183.81 390.48 186.76 387.40
  C 193.98 379.86 191.59 367.40 181.96 363.26
  Q 178.67 361.85 173.59 361.93
  Q 162.92 362.11 151.58 361.96
  A 0.57 0.57 0.0 0 1 151.02 361.39
  Z"
/>
</svg>
