<svg width="1075" height="145" viewBox="0 0 1075 145" fill="none" xmlns="http://www.w3.org/2000/svg">
<path fill-rule="evenodd" clip-rule="evenodd" d="M0 142.5H31V87.5H94V61.5H31V30.5H97V3.5H0V142.5ZM139 142.5H170V3.5H139V142.5ZM252 142.5H221V3.5H244L309 87.5V3.5H340V142.5H317L252 58.5V142.5ZM556 142.5V3.5H622C622 3.5 647 4.5 666 23.5C685 42.5 685.5 69 685 72.5C684.94 72.92 684.909 73.6928 684.866 74.7597V74.7614V74.7631C684.55 82.5901 683.597 106.222 666 122.5C646 141 622 142.5 622 142.5H556ZM587 30.5V115.5H618C618 115.5 635 114 645 101.5C655 89 654 72.5 654 72.5C654 72.5 655 57.5 645 44.5C635 31.5 618 30.5 618 30.5H587Z" fill="#23C36D"/>
<path d="M759 3.49999H728V142.5H759V3.49999Z" fill="#23C36D"/>
<path d="M907.5 103.5L928 124.5C928 124.5 909 146 875 144.5C841 143 822.5 123.5 822.5 123.5C822.5 123.5 803.5 106.5 802 73C800.5 39.5 827 17.5 827 17.5C827 17.5 842.5 2.99999 875 1.49999C907.5 -1.37091e-05 928 20.5 928 20.5L907.5 42.5C907.5 42.5 892.5 28.5 875 29.5C857.5 30.5 847 40.5 847 40.5C847 40.5 834 50.5 834 72C834 93.5 847 106.5 847 106.5C847 106.5 853.5 114.5 875 116C896.5 117.5 907.5 103.5 907.5 103.5Z" fill="#23C36D"/>
<path d="M1031 142.5H1000V30.5H957V3.5H1075V30.5H1031V142.5Z" fill="#23C36D"/>
<path d="M406 104.5V142.5H368V104.5H360.5L387.5 78.5L398 88.5V82.5H403V93.5L414.5 104.5H406Z" fill="#1C814A"/>
<path d="M468 142.5H430V65.5H423L449 39L460 49.5V43.5H464V54.5L475 65.5H468V142.5Z" fill="#1C814A"/>
<path d="M529.5 142.5H491V25.5H484.5L510.5 0L522 10.5V4.5H525.5V15.5L536.5 25.5H529.5V142.5Z" fill="#1C814A"/>
</svg>
