<svg width="1075" height="145" viewBox="0 0 1075 145" fill="none" xmlns="http://www.w3.org/2000/svg">
<path d="M408.5 104.5V142.5H370.5V104.5H363L390 78.5L400.5 88.5V82.5H405.5V93.5L417 104.5H408.5Z" fill="#EEEEEE"/>
<path d="M470.5 142.5H432.5V65.5H425.5L451.5 39L462.5 49.5V43.5H466.5V54.5L477.5 65.5H470.5V142.5Z" fill="#EEEEEE"/>
<path d="M532 142.5H493.5V25.5H487L513 0L524.5 10.5V4.5H528V15.5L539 25.5H532V142.5Z" fill="#EEEEEE"/>
<path fill-rule="evenodd" clip-rule="evenodd" d="M0 142H31V87H94V61H31V30H97V3H0V142ZM139 142H170V3H139V142ZM252 142H221V3H244L309 87V3H340V142H317L252 58V142ZM556 142V3H622C622 3 647 4 666 23C685 42 685.5 68.5 685 72C684.94 72.42 684.909 73.1928 684.866 74.2597V74.2614V74.2631C684.55 82.0901 683.597 105.722 666 122C646 140.5 622 142 622 142H556ZM587 30V115H618C618 115 635 113.5 645 101C655 88.5 654 72 654 72C654 72 655 57 645 44C635 31 618 30 618 30H587Z" fill="#EEEEEE"/>
<path d="M759 3.07848H728V142.078H759V3.07848Z" fill="#EEEEEE"/>
<path d="M907.5 103.078L928 124.078C928 124.078 909 145.578 875 144.078C841 142.578 822.5 123.078 822.5 123.078C822.5 123.078 803.5 106.078 802 72.5785C800.5 39.0785 827 17.0785 827 17.0785C827 17.0785 842.5 2.57848 875 1.07848C907.5 -0.421522 928 20.0785 928 20.0785L907.5 42.0785C907.5 42.0785 892.5 28.0785 875 29.0785C857.5 30.0785 847 40.0785 847 40.0785C847 40.0785 834 50.0785 834 71.5785C834 93.0785 847 106.078 847 106.078C847 106.078 853.5 114.078 875 115.578C896.5 117.078 907.5 103.078 907.5 103.078Z" fill="#EEEEEE"/>
<path d="M1031 142.078H1000V30.0785H957V3.07849H1075V30.0785H1031V142.078Z" fill="#EEEEEE"/>
</svg>
